# xmcd
#
# Track frame offsets:
#	150
#	17800
#	34702
#	52489
#	67737
#	82577
#	99407
#	117607
#	131967
#	145272
#	162062
#	178550
#	197395
#	217947
#
# Disc length: 3014 seconds
#
# Revision: 0
# Processed by: cddbd v1.4PL0 Copyright (c) Steve Scherf et al.
# Submitted via: dBpowerAMP V4.0
#
DISCID=bb0bc40e
DTITLE=H. P. Lange - Thomas Holm - Stop breakin' down
DYEAR=1995
DGENRE=Blues
TTITLE0=Keep your hands off her
TTITLE1=She gotta boogie
TTITLE2=From four until late
TTITLE3=Stop breakin' down blues
TTITLE4=Jivin' woman blues
TTITLE5=Trouble in mind
TTITLE6=The sky is cryin'
TTITLE7=Come on in my kitchen
TTITLE8=Decatur St. Rag
TTITLE9=When you say you love me
TTITLE10=Cherry Red
TTITLE11=Walking blues
TTITLE12=Candyman
TTITLE13=Jomfru Ane Gade Rag
EXTD=
EXTT0=
EXTT1=
EXTT2=
EXTT3=
EXTT4=
EXTT5=
EXTT6=
EXTT7=
EXTT8=
EXTT9=
EXTT10=
EXTT11=
EXTT12=
EXTT13=
PLAYORDER=
